<svg xmlns="http://www.w3.org/2000/svg" width="64" height="64" id="number"><path d="M44.864 43.965h-8.265c6.801-6.918 11.273-13.169 11.273-20.738 0-7.823-5.051-15.717-16.337-15.717-5.177 0-10.145 1.789-13.988 5.038a4.012 4.012 0 0 0-1.065 4.7l1.736 3.845a4.025 4.025 0 0 0 2.75 2.252 4.078 4.078 0 0 0 3.456-.826c1.112-.928 3.37-2.483 5.995-2.483 2.468 0 3.997.643 3.997 3.835-.044 4.454-4.101 9.026-13.79 18.249l-4.278 4.154a4.022 4.022 0 0 0-1.213 2.869v3.348c0 2.206 1.794 4 4 4h25.729c2.206 0 4-1.794 4-4v-4.525a4.004 4.004 0 0 0-4-4.001zm1 8.525c0 .552-.449 1-1 1H19.136c-.551 0-1-.448-1-1v-3.348c0-.269.11-.529.303-.717l4.267-4.144c10.328-9.831 14.654-14.837 14.71-20.397 0-4.481-2.419-6.85-6.997-6.85-3.57 0-6.492 1.992-7.915 3.179a1.05 1.05 0 0 1-.864.207 1.005 1.005 0 0 1-.688-.563l-1.736-3.845a1.002 1.002 0 0 1 .267-1.174c3.304-2.792 7.584-4.329 12.052-4.329 9.213 0 13.337 6.387 13.337 12.717 0 7.893-5.87 14.255-12.96 21.164a1.494 1.494 0 0 0-.343 1.64c.231.567.776.935 1.39.935h11.906c.551 0 1 .448 1 1v4.525z"></path></svg>