<svg xmlns="http://www.w3.org/2000/svg" width="64" height="64" id="number"><path d="M43.529 29.831c2.296-2.466 3.507-5.584 3.507-9.052 0-6.774-4.802-13.609-15.531-13.609-5.633 0-10.475 2.088-12.91 3.876a4.027 4.027 0 0 0-1.395 4.577l1.427 3.966a4.013 4.013 0 0 0 2.569 2.465 4.07 4.07 0 0 0 3.521-.563c1.239-.886 3.483-1.921 5.733-1.921 3.067 0 3.067 1.351 3.067 2.076 0 2.11-3.426 2.82-4.989 2.82H25.49c-2.206 0-4 1.794-4 4v4.092c0 2.206 1.794 4 4 4h3.038c1.494 0 6.373.298 6.416 4.134.009.446-.064 1.579-.92 2.45-.837.854-2.249 1.287-4.193 1.287-2.759 0-5.618-1.174-6.773-1.914a4.07 4.07 0 0 0-3.454-.41 3.972 3.972 0 0 0-2.472 2.45l-1.488 4.216a3.989 3.989 0 0 0 1.578 4.676c2.379 1.561 7.125 3.383 12.671 3.383 12.844 0 18.693-8.34 18.693-16.088-.001-4.328-1.792-8.181-5.057-10.911zM29.892 53.83c-4.885 0-8.993-1.558-11.026-2.891a.998.998 0 0 1-.395-1.169l1.488-4.216a.995.995 0 0 1 .943-.667c.192 0 .379.055.54.156 1.288.825 4.699 2.386 8.388 2.386 2.781 0 4.913-.735 6.334-2.185 1.651-1.681 1.794-3.777 1.78-4.598-.058-5.232-5.108-7.089-9.416-7.089H25.49c-.551 0-1-.448-1-1v-4.092c0-.552.449-1 1-1h3.038c3.089 0 7.989-1.58 7.989-5.82 0-1.526-.591-5.076-6.067-5.076-2.961 0-5.879 1.337-7.477 2.48a1.002 1.002 0 0 1-1.524-.476l-1.427-3.967a1.008 1.008 0 0 1 .348-1.145c2.069-1.52 6.226-3.293 11.133-3.293 8.656 0 12.531 5.328 12.531 10.609 0 3.208-1.313 5.986-3.798 8.036a1.501 1.501 0 0 0 .143 2.419c3.308 2.127 5.205 5.593 5.205 9.508.001 6.306-4.91 13.09-15.692 13.09z"></path></svg>