<svg xmlns="http://www.w3.org/2000/svg" width="64" height="64" id="number"><path d="M46.755 32.898h-1.642V11.852c0-2.206-1.794-4-4-4h-5.89a4.003 4.003 0 0 0-3.279 1.709L13.964 35.29a3.987 3.987 0 0 0-.721 2.291v3.596c0 2.206 1.794 4 4 4h14.724v6.973c0 2.206 1.794 4 4 4h5.146c2.206 0 4-1.794 4-4v-6.973h1.642c2.206 0 4-1.794 4-4V36.9a4.004 4.004 0 0 0-4-4.002zm1 8.278c0 .552-.449 1-1 1h-3.142c-.827 0-1.5.673-1.5 1.5v8.473c0 .552-.449 1-1 1h-5.146c-.551 0-1-.448-1-1v-8.473c0-.827-.673-1.5-1.5-1.5H17.245c-.551 0-1-.448-1-1V37.58c0-.206.062-.403.18-.572l17.98-25.729a.999.999 0 0 1 .819-.427h5.89c.551 0 1 .448 1 1v22.547c0 .827.673 1.5 1.5 1.5h3.142c.551 0 1 .448 1 1v4.277z"></path><path d="M33.968 24.767v-.144l-.083.116a1.523 1.523 0 0 0-1.634.559l-5.917 8.225a1.498 1.498 0 0 0 1.217 2.376h5.917c.827 0 1.5-.673 1.5-1.5v-8.225c0-.637-.401-1.193-1-1.407zm-2 8.131h-1.49l1.49-2.071v2.071z"></path></svg>