<svg width="64" height="64" viewBox="0 0 64 64" fill="none" xmlns="http://www.w3.org/2000/svg">
<path d="M36 19.622V13C36.6566 13 37.3068 13.1293 37.9134 13.3806C38.52 13.6319 39.0712 14.0002 39.5355 14.4645C39.9998 14.9288 40.3681 15.48 40.6194 16.0866C40.8707 16.6932 41 17.3434 41 18V21.2M28 19.622V13C26.6739 13 25.4021 13.5268 24.4645 14.4645C23.5268 15.4021 23 16.6739 23 18V21.2" stroke="black" stroke-width="2" stroke-linecap="round" stroke-linejoin="round"/>
<path d="M18 47.533V30.214C18 27.5051 19.0761 24.9071 20.9916 22.9916C22.9071 21.0761 25.5051 20 28.214 20H35.786C38.4949 20 41.0929 21.0761 43.0084 22.9916C44.9239 24.9071 46 27.5051 46 30.214V48.027M18.139 47.479C17.9992 46.9977 17.9643 46.492 18.0368 45.9961C18.1093 45.5001 18.2875 45.0256 18.5593 44.6045C18.8311 44.1834 19.1902 43.8255 19.6122 43.5552C20.0342 43.2849 20.5094 43.1083 21.0056 43.0375C21.5018 42.9667 22.0074 43.0033 22.4882 43.1448C22.969 43.2863 23.4138 43.5295 23.7925 43.8577C24.1712 44.186 24.475 44.5918 24.6833 45.0477C24.8917 45.5035 24.9997 45.9988 25 46.5" stroke="black" stroke-width="2" stroke-linecap="round" stroke-linejoin="round"/>
<path d="M46 41H38.625C37.8863 41.0001 37.1548 40.8547 36.4723 40.5721C35.7897 40.2895 35.1696 39.8751 34.6472 39.3528C34.1249 38.8304 33.7105 38.2103 33.4279 37.5277C33.1453 36.8452 32.9999 36.1137 33 35.375V30H46" stroke="black" stroke-width="2" stroke-linecap="round" stroke-linejoin="round"/>
<path d="M42.5 47H21.5C17.9101 47 15 49.9101 15 53.5C15 57.0899 17.9101 60 21.5 60H42.5C46.0899 60 49 57.0899 49 53.5C49 49.9101 46.0899 47 42.5 47Z" stroke="black" stroke-width="2" stroke-linecap="round" stroke-linejoin="round"/>
<path d="M38 37C39.1046 37 40 36.1046 40 35C40 33.8954 39.1046 33 38 33C36.8954 33 36 33.8954 36 35C36 36.1046 36.8954 37 38 37Z" fill="black"/>
<path d="M26 37C27.1046 37 28 36.1046 28 35C28 33.8954 27.1046 33 26 33C24.8954 33 24 33.8954 24 35C24 36.1046 24.8954 37 26 37Z" fill="black"/>
<path d="M24.062 20.888C24.023 21.0897 24.0023 21.2946 24 21.5C24 22.4283 24.3687 23.3185 25.0251 23.9749C25.6815 24.6313 26.5717 25 27.5 25C28.4283 25 29.3185 24.6313 29.9749 23.9749C30.6313 23.3185 31 22.4283 31 21.5C30.9974 20.9801 30.8778 20.4674 30.65 20M46 27H59C59 29.3869 58.0518 31.6761 56.364 33.364C54.6761 35.0518 52.3869 36 50 36H46V27ZM18 36H14C11.6131 36 9.32387 35.0518 7.63604 33.364C5.94821 31.6761 5 29.3869 5 27H18V36Z" stroke="black" stroke-width="2" stroke-linecap="round" stroke-linejoin="round"/>
<path d="M39.5 55C40.3284 55 41 54.3284 41 53.5C41 52.6716 40.3284 52 39.5 52C38.6716 52 38 52.6716 38 53.5C38 54.3284 38.6716 55 39.5 55Z" fill="black"/>
<path d="M24.5 55C25.3284 55 26 54.3284 26 53.5C26 52.6716 25.3284 52 24.5 52C23.6716 52 23 52.6716 23 53.5C23 54.3284 23.6716 55 24.5 55Z" fill="black"/>
</svg>
