<svg width="64" height="64" viewBox="0 0 64 64" fill="none" xmlns="http://www.w3.org/2000/svg">
<path d="M23 8C22.0159 8.00308 21.0479 8.24936 20.182 8.71693C19.3161 9.1845 18.5793 9.85886 18.037 10.68L13.322 9.075L12.678 10.968L17.215 12.512C17.074 13.0313 17.0017 13.5669 17 14.105C16.9712 15.5125 17.4397 16.8851 18.323 17.9814C19.2064 19.0776 20.448 19.8272 21.8295 20.0983C23.2109 20.3695 24.6438 20.1448 25.8759 19.4637C27.1081 18.7827 28.0606 17.689 28.566 16.375L33.678 18.114L34.322 16.222L28.985 14.405C28.985 14.305 29 14.205 29 14.105C29.012 12.5004 28.387 10.9565 27.2622 9.81197C26.1374 8.66748 24.6046 8.01584 23 8ZM23 10C24.0047 10.0148 24.9677 10.4041 25.7005 11.0916C26.4333 11.7791 26.8831 12.7153 26.962 13.717L20.045 11.363C20.4116 10.938 20.8651 10.5964 21.3748 10.3613C21.8845 10.1262 22.4387 10.003 23 10ZM23 18.21C21.9256 18.1947 20.9012 17.754 20.1513 16.9844C19.4015 16.2149 18.9874 15.1794 19 14.105C19.0029 13.7862 19.0425 13.4688 19.118 13.159L26.67 15.73C26.3706 16.4589 25.8625 17.0831 25.2096 17.5244C24.5567 17.9656 23.788 18.2041 23 18.21Z" fill="black"/>
<path d="M62 51C61.9809 50.7265 61.858 50.4706 61.6565 50.2848C61.455 50.0989 61.1901 49.997 60.916 50C59.5045 50.0014 58.119 50.3801 56.903 51.0969C55.687 51.8138 54.6847 52.8426 54 54.077C53.3027 52.835 52.2859 51.8021 51.0551 51.0853C49.8244 50.3685 48.4243 49.9937 47 50C46.7264 50.0193 46.4706 50.1424 46.2847 50.3441C46.0989 50.5457 45.997 50.8107 46 51.085C46.0029 53.0245 46.7171 54.8956 48.0072 56.3438C49.2973 57.792 51.0737 58.7168 53 58.943V60H37V58.943C38.9385 58.7095 40.7233 57.7708 42.0143 56.306C43.3052 54.8411 44.012 52.9525 44 51C43.9809 50.7265 43.858 50.4706 43.6565 50.2848C43.455 50.0989 43.1901 49.997 42.916 50C41.5045 50.0014 40.119 50.3801 38.903 51.0969C37.687 51.8138 36.6847 52.8426 36 54.077C35.3027 52.835 34.2859 51.8021 33.0551 51.0853C31.8244 50.3685 30.4243 49.9937 29 50C28.7264 50.0193 28.4706 50.1424 28.2847 50.3441C28.0989 50.5457 27.997 50.8107 28 51.085C28.0029 53.0245 28.7171 54.8956 30.0072 56.3438C31.2973 57.792 33.0737 58.7168 35 58.943V60H25.321C25.6849 59.3804 25.8542 58.6659 25.807 57.949L25.036 45.305C25.0002 44.6982 24.7847 44.1159 24.417 43.632L18.217 35.49L18.936 34.337L21.518 34.93L21.989 35.962C22.0444 36.0834 22.1236 36.1925 22.2218 36.2828C22.3201 36.3731 22.4354 36.4429 22.561 36.488L29.61 39.02C29.9233 39.1333 30.2565 39.1814 30.5891 39.1613C30.9217 39.1412 31.2466 39.0533 31.544 38.903C32.1137 38.6091 32.5564 38.1173 32.789 37.52L37.02 38.491C37.0108 38.5302 37.0041 38.5699 37 38.61V45.757C37 46.0222 37.1054 46.2765 37.2929 46.4641C37.4804 46.6516 37.7348 46.757 38 46.757H46C46.2652 46.757 46.5196 46.6516 46.7071 46.4641C46.8946 46.2765 47 46.0222 47 45.757V38.61C46.9999 38.4258 46.949 38.2453 46.8528 38.0882C46.7566 37.9312 46.619 37.8037 46.455 37.72L42.455 35.678C42.3143 35.6055 42.1583 35.5677 42 35.5677C41.8417 35.5677 41.6857 35.6055 41.545 35.678L39.111 36.92L32.811 35.472C32.571 34.8361 32.0929 34.3185 31.478 34.029L26.556 31.757L24.266 24.88C24.2621 24.3873 24.1395 23.9028 23.9085 23.4676C23.6775 23.0323 23.3449 22.6593 22.939 22.38L17.453 18.645C16.9502 18.303 16.3547 18.1235 15.7467 18.1307C15.1387 18.1379 14.5476 18.3313 14.053 18.685L6.47 21.708C5.73175 22.0353 5.14754 22.6339 4.8382 23.3799C4.52886 24.1259 4.51805 24.9622 4.808 25.716L6.2 29.359L2.227 28.446L1.776 30.4L7.046 31.61L6.128 33.01C4.72465 35.1633 4.17945 37.7644 4.6 40.3L5.91 48.349C5.94539 48.5627 5.91578 48.7822 5.825 48.979L2.275 56.624C2.06073 57.1684 1.96978 57.7535 2.00868 58.3372C2.04759 58.921 2.21538 59.4888 2.5 60H2V62H62V60H55V58.943C56.9385 58.7095 58.7233 57.7708 60.0143 56.306C61.3052 54.8411 62.012 52.9525 62 51ZM41.914 52.1C41.7031 53.3028 41.126 54.4112 40.2615 55.2737C39.397 56.1362 38.2873 56.7108 37.084 56.919C37.2956 55.7164 37.8729 54.6084 38.7373 53.746C39.6017 52.8836 40.711 52.3088 41.914 52.1ZM30.1 52.086C31.3028 52.2971 32.4111 52.8742 33.2739 53.7384C34.1366 54.6026 34.7118 55.7119 34.921 56.915C33.7183 56.7037 32.61 56.1266 31.7473 55.2624C30.8845 54.3982 30.3093 53.289 30.1 52.086ZM20.051 32.542L20.267 32.196L20.467 32.638L20.051 32.542ZM30.651 37.114C30.595 37.1428 30.5337 37.1597 30.4709 37.1637C30.4081 37.1676 30.3451 37.1585 30.286 37.137L28.8 36.6L30.733 37.044C30.7072 37.0702 30.6787 37.0937 30.648 37.114H30.651ZM42 37.691L45 39.223V44.757H39V39.223L42 37.691ZM7.228 23.559L14.571 20.629C14.6905 20.6168 14.8067 20.5829 14.914 20.529L15.239 20.362C15.332 20.314 15.417 20.2519 15.491 20.178C15.6303 20.1356 15.7772 20.1249 15.9211 20.1465C16.065 20.1682 16.2023 20.2216 16.323 20.303L21.809 24.038C21.9585 24.1423 22.0785 24.2835 22.1576 24.4478C22.2366 24.6121 22.2718 24.794 22.26 24.976C22.2522 25.1033 22.2688 25.2309 22.309 25.352L24.791 32.8C24.8341 32.9295 24.9033 33.0489 24.9942 33.1507C25.0852 33.2525 25.1961 33.3346 25.32 33.392L26.873 34.109L22.924 33.2L21.316 29.677C21.2249 29.4786 21.0719 29.3151 20.88 29.211C20.6559 29.0886 20.3935 29.0566 20.1466 29.1215C19.8997 29.1864 19.687 29.3433 19.552 29.56L17.99 32.068L12.216 30.742L11.205 28.264L13.14 24.746C13.2903 24.5494 13.3728 24.3094 13.375 24.062C13.375 23.8688 13.319 23.6797 13.2138 23.5177C13.1086 23.3557 12.9588 23.2275 12.7824 23.1489C12.6059 23.0702 12.4105 23.0443 12.2197 23.0743C12.0288 23.1043 11.8508 23.1889 11.707 23.318L8.621 24.585C8.37655 24.6854 8.18179 24.8785 8.07929 25.1221C7.97679 25.3657 7.97489 25.64 8.074 25.885L10.407 31.6C10.4433 31.6883 10.4611 31.7831 10.4594 31.8785C10.4576 31.9739 10.4364 32.068 10.397 32.155C10.366 32.2279 10.3205 32.2938 10.2633 32.3487C10.206 32.4035 10.1382 32.4461 10.064 32.474C9.99625 32.4952 9.92495 32.5029 9.85423 32.4964C9.7835 32.49 9.71477 32.4695 9.65199 32.4363C9.58921 32.4031 9.53364 32.3578 9.4885 32.303C9.44336 32.2482 9.40954 32.1849 9.389 32.117L6.677 25C6.56914 24.7347 6.56604 24.4383 6.66833 24.1708C6.77061 23.9033 6.97065 23.6846 7.228 23.559ZM4.113 57.409L7.639 49.82C7.89861 49.2604 7.98397 48.6357 7.884 48.027L6.569 39.976C6.2294 37.9323 6.66866 35.8355 7.8 34.1L8.06 33.7C8.3916 34.0564 8.81984 34.3086 9.2924 34.4256C9.76496 34.5426 10.2614 34.5195 10.721 34.359C11.0527 34.2435 11.3571 34.0609 11.6152 33.8226C11.8732 33.5843 12.0795 33.2954 12.221 32.974C12.246 32.919 12.257 32.86 12.278 32.803L16.871 33.858L16.151 35.013C16.0438 35.1853 15.9915 35.3861 16.0011 35.5889C16.0108 35.7916 16.0819 35.9866 16.205 36.148L22.825 44.839C22.953 45.0072 23.0279 45.2099 23.04 45.421L23.811 58.075C23.8277 58.2914 23.7993 58.5089 23.7275 58.7138C23.6557 58.9186 23.5421 59.1063 23.394 59.265C23.2569 59.4146 23.0902 59.534 22.9044 59.6156C22.7186 59.6972 22.5179 59.7392 22.315 59.739C21.9315 59.7328 21.5644 59.5826 21.2865 59.3182C21.0086 59.0539 20.8403 58.6947 20.815 58.312L20.046 47.462C19.996 46.7374 19.6897 46.0543 19.182 45.535L12.709 38.927C12.5699 38.7852 12.3918 38.688 12.1973 38.6478C12.0028 38.6076 11.8008 38.6262 11.6169 38.7013C11.4331 38.7764 11.2757 38.9046 11.165 39.0694C11.0542 39.2343 10.995 39.4284 10.995 39.627V49.461C10.9951 49.5903 10.9721 49.7187 10.927 49.84L7.65 58.633C7.55527 58.9884 7.35632 59.3073 7.07876 59.5486C6.8012 59.7899 6.45776 59.9426 6.09265 59.9871C5.72754 60.0315 5.35749 59.9656 5.03016 59.7979C4.70282 59.6301 4.4332 59.3683 4.256 59.046C4.11453 58.7999 4.02845 58.526 4.00375 58.2433C3.97905 57.9605 4.01634 57.6758 4.113 57.409ZM9.546 59.265L12.805 50.544C12.9362 50.1993 13.004 49.8338 13.005 49.465V42.081L17.764 46.94C17.9402 47.1195 18.0466 47.356 18.064 47.607L18.833 58.463C18.879 59.007 19.0501 59.533 19.333 60H9.231C9.36248 59.7672 9.46811 59.5207 9.546 59.265ZM59.914 52.1C59.7031 53.3028 59.126 54.4112 58.2615 55.2737C57.397 56.1362 56.2873 56.7108 55.084 56.919C55.2956 55.7164 55.8729 54.6084 56.7373 53.746C57.6017 52.8836 58.711 52.3088 59.914 52.1ZM48.1 52.086C49.3028 52.2971 50.4111 52.8742 51.2739 53.7384C52.1366 54.6026 52.7118 55.7119 52.921 56.915C51.7183 56.7037 50.61 56.1266 49.7473 55.2624C48.8845 54.3982 48.3093 53.289 48.1 52.086Z" fill="black"/>
</svg>
