<svg width="64" height="64" viewBox="0 0 64 64" fill="none" xmlns="http://www.w3.org/2000/svg">
<path d="M61.606 42.205C61.4837 42.1119 61.3416 42.0482 61.1907 42.0189C61.0399 41.9896 60.8842 41.9954 60.736 42.036L42.083 47.143H35.56L27.172 44.614C26.9835 44.5571 26.7825 44.5571 26.594 44.614L18.2 47.143H14.23V46.857C14.23 46.5918 14.1246 46.3374 13.9371 46.1499C13.7496 45.9624 13.4952 45.857 13.23 45.857H3C2.73478 45.857 2.48043 45.9624 2.29289 46.1499C2.10536 46.3374 2 46.5918 2 46.857V59.714C2 59.9792 2.10536 60.2336 2.29289 60.4211C2.48043 60.6087 2.73478 60.714 3 60.714H13.235C13.5002 60.714 13.7546 60.6087 13.9421 60.4211C14.1296 60.2336 14.235 59.9792 14.235 59.714V59.575L31.864 61.991C31.9091 61.997 31.9545 62 32 62C32.1395 61.9999 32.2775 61.9706 32.405 61.914L61.405 49.057C61.582 48.9786 61.7324 48.8505 61.8381 48.6883C61.9437 48.526 61.9999 48.3366 62 48.143V43C61.9999 42.8461 61.9643 42.6943 61.896 42.5564C61.8277 42.4185 61.7284 42.2983 61.606 42.205ZM12.235 58.714H4V47.857H12.235V58.714ZM60 47.493L31.854 59.971L14.235 57.556V49.143H18.353C18.4509 49.143 18.5482 49.1289 18.642 49.101L26.883 46.616L35.123 49.101C35.2168 49.1289 35.3141 49.1431 35.412 49.143H42.941V51.061L23.408 52.288L23.533 54.288L44 53C44.2541 52.984 44.4926 52.8716 44.6667 52.6858C44.8408 52.4999 44.9375 52.2547 44.937 52V48.434L60 44.311V47.493ZM15.391 33.887L19.191 37.706C19.207 37.722 19.23 37.728 19.247 37.743C19.0931 38.1794 19.0097 38.6374 19 39.1C19 39.136 19.009 39.163 19.01 39.2C19.01 39.261 18.999 39.326 19.001 39.38H19.029C19.0659 39.8894 19.2854 40.3684 19.647 40.729L21 39.312C21.0027 39.3558 20.9941 39.3995 20.975 39.439C21.218 39.039 23.475 38.156 27.547 38.223C30.758 41.2986 35.0357 43.0108 39.482 43H39.533C39.645 43 39.754 42.986 39.865 42.984V43C39.942 43 40.014 42.98 40.091 42.975C44.8433 42.8289 49.3585 40.8653 52.706 37.489C52.8929 37.3016 52.9978 37.0477 52.9978 36.783C52.9978 36.5183 52.8929 36.2645 52.706 36.077C51.1007 34.4613 49.1905 33.1805 47.0862 32.309C44.982 31.4375 42.7256 30.9925 40.448 31H40.4C40.219 31 40.041 31.022 39.86 31.027C39.694 31.02 39.529 31.013 39.36 31.016V31.052C34.9314 31.3075 30.7411 33.1417 27.549 36.222C25.6576 36.1649 23.7672 36.3637 21.929 36.813C22.7533 35.5373 23.7295 34.3664 24.836 33.326C25.108 33.337 25.38 33.353 25.649 33.353C27.893 33.3791 30.1198 32.9594 32.2003 32.1183C34.2808 31.2771 36.1737 30.0313 37.769 28.453C37.863 28.359 37.942 28.253 38.034 28.153L38.047 28.165C38.108 28.102 38.147 28.027 38.206 27.965C39.9159 26.085 41.2204 23.8732 42.0385 21.4672C42.8565 19.0612 43.1705 16.5126 42.961 13.98C42.9462 13.7372 42.8434 13.5081 42.6718 13.3356C42.5003 13.1631 42.2717 13.0591 42.029 13.043C39.5782 12.8405 37.1126 13.1696 34.8008 14.0078C32.4889 14.8461 30.3854 16.1738 28.634 17.9C28.493 18.04 28.373 18.2 28.234 18.34C28.098 18.463 27.964 18.587 27.834 18.721L27.864 18.75C24.7371 22.3926 23.1486 27.1079 23.434 31.9C23.281 32.048 23.128 32.2 22.975 32.355C23.0408 31.2074 22.8642 30.0588 22.4565 28.984C22.0489 27.9092 21.4193 26.9323 20.609 26.117L16.809 22.298C16.7161 22.2046 16.6056 22.1305 16.4839 22.0799C16.3622 22.0293 16.2318 22.0032 16.1 22.0032C15.9682 22.0032 15.8378 22.0293 15.7161 22.0799C15.5944 22.1305 15.4839 22.2046 15.391 22.298C13.863 23.8395 13.0058 25.9221 13.0058 28.0925C13.0058 30.263 13.863 32.3455 15.391 33.887ZM32.5 35.047C32.7784 35.1044 33.0334 35.2437 33.232 35.447C33.7731 36.0644 34.0481 36.8707 33.997 37.69L35.997 37.737C36.0305 37.0628 35.9291 36.3887 35.6986 35.7542C35.4682 35.1197 35.1134 34.5376 34.655 34.042C36.2786 33.4377 37.9879 33.0954 39.719 33.028C40.6543 33 41.5694 33.3032 42.303 33.884C42.3802 33.9493 42.4434 34.0295 42.4886 34.12C42.5338 34.2104 42.5601 34.3091 42.566 34.41L44.566 34.456C44.5708 34.134 44.5131 33.8141 44.396 33.514C46.6719 34.1054 48.7775 35.2219 50.544 36.774C48.8315 38.294 46.8255 39.4467 44.65 40.161C44.9802 39.5556 45.1637 38.8812 45.186 38.192L43.186 38.144C43.0956 38.9224 42.7228 39.6406 42.1381 40.1625C41.5535 40.6843 40.7976 40.9734 40.014 40.975C39.853 40.975 39.695 40.997 39.534 40.997H39.49C39.334 40.997 39.181 40.98 39.025 40.975C40.2494 39.764 40.9511 38.1219 40.98 36.4L38.98 36.353C38.928 38.58 37.409 40.419 35.596 40.453V40.5C33.2976 39.9137 31.1704 38.7922 29.388 37.227C30.3407 36.3865 31.3846 35.6553 32.5 35.047ZM41 15C41.0619 17.6693 40.5054 20.3166 39.374 22.735C39.1398 21.8364 38.6835 21.0111 38.047 20.335L36.6 21.719C37.2167 22.3774 37.5709 23.239 37.5954 24.1408C37.6199 25.0426 37.3131 25.9221 36.733 26.613C36.604 26.752 36.488 26.9 36.353 27.034C36.153 27.234 35.932 27.415 35.72 27.603C35.7257 26.5541 35.5241 25.5145 35.1266 24.5438C34.7292 23.5732 34.1437 22.6906 33.404 21.947L31.961 23.332C33.836 25.287 34.309 28.098 32.992 29.471L33.027 29.504C30.6874 30.7696 28.0594 31.406 25.4 31.351C25.3786 29.876 25.5364 28.4039 25.87 26.967C26.0897 26.8222 26.3479 26.7466 26.611 26.75C27.6828 26.8492 28.6754 27.3569 29.383 28.168L30.826 26.784C29.7451 25.5755 28.2296 24.8442 26.611 24.75C26.581 24.75 26.553 24.757 26.522 24.757C27.2178 22.9432 28.2503 21.2773 29.565 19.847C30.771 18.768 32.352 18.366 32.992 19.032L34.436 17.648C34.1142 17.3158 33.7204 17.062 33.285 16.906C35.6489 15.6149 38.3069 14.9583 41 15ZM16.157 24.475L19.191 27.524C20.1038 28.4456 20.706 29.6293 20.9134 30.9097C21.1208 32.1901 20.9232 33.5034 20.348 34.666C18.416 32.302 18.038 30.107 18.709 29.433L17.291 28.021C16.291 29.03 16.159 30.642 16.773 32.434C15.7546 31.3895 15.1351 30.0207 15.0225 28.5662C14.9099 27.1117 15.3114 25.6638 16.157 24.475Z" fill="black"/>
<path d="M55.05 23.013C51.685 22.467 51.533 22.313 50.987 18.95C50.9488 18.7157 50.8286 18.5027 50.6478 18.3489C50.467 18.1951 50.2374 18.1107 50 18.1107C49.7626 18.1107 49.533 18.1951 49.3522 18.3489C49.1714 18.5027 49.0511 18.7157 49.013 18.95C48.467 22.315 48.313 22.467 44.95 23.013C44.7157 23.0511 44.5027 23.1714 44.3489 23.3522C44.1951 23.533 44.1107 23.7626 44.1107 24C44.1107 24.2374 44.1951 24.467 44.3489 24.6478C44.5027 24.8286 44.7157 24.9488 44.95 24.987C48.315 25.533 48.467 25.687 49.013 29.05C49.0511 29.2843 49.1714 29.4973 49.3522 29.6511C49.533 29.8048 49.7626 29.8893 50 29.8893C50.2374 29.8893 50.467 29.8048 50.6478 29.6511C50.8286 29.4973 50.9488 29.2843 50.987 29.05C51.533 25.685 51.687 25.533 55.05 24.987C55.2843 24.9488 55.4973 24.8286 55.6511 24.6478C55.8048 24.467 55.8893 24.2374 55.8893 24C55.8893 23.7626 55.8048 23.533 55.6511 23.3522C55.4973 23.1714 55.2843 23.0511 55.05 23.013ZM50 25.291C49.6961 24.7508 49.25 24.3043 48.71 24C49.25 23.6957 49.6961 23.2492 50 22.709C50.3039 23.2492 50.75 23.6957 51.29 24C50.75 24.3043 50.3039 24.7508 50 25.291Z" fill="black"/>
</svg>
